Coordinates
version=1
nRows=38
nColumns=12
inDegrees=yes

Units are S.I. units (second, meters, Newtons, ...)
Angles are in degrees

endheader
time	SC_y	SC_z	SC_x	AC_y	AC_z	AC_x	GH_y	GH_z	GH_yy	EL_x	PS_y
       0.0              -34.47           37.8          69.06          66.84          2.408         -12.53         -102.9          42.78          110.2          21.83          11.99
   0.02127              -34.47           37.8          69.05          66.83          2.408         -12.53         -102.9          42.77          110.2          21.83           12.0
   0.04255              -34.47           37.8          69.05          66.83          2.407         -12.53         -102.8          42.77          110.2          21.84           12.0
   0.06382              -34.47           37.8          69.04          66.82          2.407         -12.53         -102.8          42.76          110.2          21.84           12.0
   0.08509              -34.47           37.8          69.03          66.82          2.407         -12.54         -102.8          42.75          110.1          21.85           12.0
    0.1064              -34.48          37.79          69.02          66.81          2.406         -12.54         -102.7          42.74          110.1          21.86           12.0
    0.1276              -34.48          37.79          69.01          66.81          2.406         -12.54         -102.7          42.72          110.1          21.86           12.0
    0.1489              -34.48          37.79           69.0           66.8          2.406         -12.54         -102.6          42.71          110.1          21.87           12.0
    0.1702              -34.48          37.79          68.99           66.8          2.405         -12.54         -102.6           42.7          110.1          21.88           12.0
    0.1915              -34.48          37.78          68.98          66.79          2.405         -12.54         -102.5          42.69          110.1          21.89           12.0
    0.2127              -34.48          37.78          68.96          66.78          2.404         -12.54         -102.5          42.67          110.1          21.89          12.01
     0.234              -34.48          37.78          68.95          66.78          2.404         -12.55         -102.4          42.65          110.0           21.9          12.01
    0.2553              -34.48          37.77          68.94          66.77          2.403         -12.55         -102.4          42.64          110.0          21.91          12.01
    0.2766              -34.48          37.77          68.92          66.76          2.403         -12.55         -102.3          42.62          110.0          21.93          12.01
    0.2978              -34.48          37.77           68.9          66.75          2.402         -12.55         -102.2           42.6          110.0          21.94          12.01
    0.3191              -34.48          37.76          68.88          66.74          2.401         -12.55         -102.1          42.58          110.0          21.95          12.02
    0.3404              -34.48          37.76          68.86          66.73          2.401         -12.56         -102.0          42.55          109.9          21.97          12.02
    0.3617              -34.48          37.75          68.84          66.72            2.4         -12.56         -102.0          42.53          109.9          21.98          12.02
    0.3829              -34.48          37.75          68.82           66.7          2.399         -12.56         -101.8           42.5          109.9           22.0          12.02
    0.4042              -34.48          37.74          68.79          66.69          2.398         -12.57         -101.7          42.47          109.8          22.02          12.03
    0.4255              -34.48          37.73          68.76          66.67          2.397         -12.57         -101.6          42.43          109.8          22.04          12.03
    0.4467              -34.48          37.73          68.73          66.65          2.396         -12.57         -101.5           42.4          109.7          22.06          12.03
     0.468              -34.49          37.72          68.69          66.63          2.394         -12.58         -101.3          42.35          109.7          22.09          12.04
    0.4893              -34.49          37.71          68.65          66.61          2.393         -12.58         -101.1          42.31          109.6          22.11          12.04
    0.5106              -34.49           37.7          68.61          66.59          2.391         -12.59         -101.0          42.26          109.6          22.14          12.05
    0.5318              -34.49          37.69          68.56          66.56          2.389          -12.6         -100.7           42.2          109.5          22.18          12.05
    0.5531              -34.49          37.68           68.5          66.53          2.387          -12.6         -100.5          42.14          109.4          22.22          12.06
    0.5744              -34.49          37.66          68.44           66.5          2.385         -12.61         -100.2          42.06          109.4          22.26          12.07
    0.5957               -34.5          37.65          68.37          66.46          2.382         -12.62         -99.93          41.98          109.3          22.31          12.08
    0.6169               -34.5          37.63          68.29          66.42          2.379         -12.63         -99.59          41.89          109.2          22.37          12.08
    0.6382               -34.5          37.61           68.2          66.37          2.376         -12.64          -99.2          41.79          109.0          22.43          12.09
    0.6595              -34.51          37.59          68.09          66.31          2.372         -12.66         -98.75          41.67          108.9           22.5          12.11
    0.6808              -34.51          37.56          67.97          66.24          2.368         -12.67         -98.23          41.53          108.8          22.59          12.12
     0.702              -34.51          37.53          67.83          66.17          2.362         -12.69         -97.63          41.36          108.6          22.68          12.14
    0.7233              -34.52          37.49          67.67          66.08          2.356         -12.71         -96.93          41.17          108.3           22.8          12.16
    0.7446              -34.53          37.45          67.47          65.97          2.349         -12.73          -96.1          40.95          108.1          22.93          12.18
    0.7659              -34.53           37.4          67.24          65.85          2.341         -12.76         -95.11          40.69          107.8          23.09          12.21
    0.7871              -34.54          37.33          66.97           65.7           2.33          -12.8         -93.93          40.37          107.4          23.29          12.24
